<svg width="800" height="800" viewBox="0 0 800 800" fill="none" xmlns="http://www.w3.org/2000/svg">
<path d="M373.362 226.643C388.087 211.919 411.96 211.919 426.684 226.643L573.37 373.324C588.094 388.047 588.094 411.92 573.37 426.644L426.684 573.324C411.96 588.048 388.087 588.048 373.362 573.324L226.677 426.644C211.952 411.92 211.952 388.047 226.677 373.324L373.362 226.643Z" fill="white"/>
<path d="M586.658 513.282C594.02 505.921 605.956 505.921 613.318 513.282L686.659 586.621C694.021 593.983 694.021 605.919 686.659 613.28L613.318 686.619C605.956 693.981 594.02 693.981 586.658 686.619L513.317 613.28C505.955 605.919 505.955 593.983 513.317 586.621L586.658 513.282Z" fill="white"/>
<path d="M286.501 586.454C293.957 593.909 293.957 605.997 286.501 613.453L213.5 686.452C206.044 693.907 193.956 693.907 186.5 686.452L113.499 613.453C106.043 605.997 106.043 593.909 113.499 586.454L186.5 513.455C193.956 506 206.044 506 213.5 513.455L286.501 586.454Z" fill="white"/>
<path d="M406.524 93.4982C402.934 97.088 397.113 97.088 393.523 93.4982L356.523 56.499C352.933 52.9092 352.933 47.089 356.523 43.4992L393.523 6.50002C397.113 2.91025 402.934 2.91025 406.524 6.50003L443.524 43.4992C447.114 47.089 447.114 52.9092 443.524 56.499L406.524 93.4982Z" fill="white"/>
<path d="M186.502 113.498C193.958 106.042 206.046 106.042 213.502 113.498L286.503 186.496C293.959 193.952 293.959 206.04 286.503 213.496L213.502 286.494C206.046 293.95 193.958 293.95 186.502 286.494L113.501 213.496C106.045 206.04 106.045 193.952 113.501 186.496L186.502 113.498Z" fill="white"/>
<path d="M686.499 186.483C693.955 193.939 693.955 206.027 686.499 213.482L613.498 286.481C606.042 293.937 593.954 293.937 586.498 286.481L513.497 213.482C506.041 206.027 506.041 193.939 513.497 186.483L586.498 113.484C593.954 106.029 606.042 106.029 613.498 113.484L686.499 186.483Z" fill="white"/>
<path d="M356.689 756.666C353.007 752.985 353.007 747.017 356.689 743.336L393.359 706.667C397.04 702.986 403.008 702.986 406.689 706.667L443.359 743.336C447.041 747.017 447.041 752.985 443.359 756.666L406.689 793.335C403.008 797.016 397.04 797.016 393.359 793.335L356.689 756.666Z" fill="white"/>
</svg>
